<svg xmlns="http://www.w3.org/2000/svg" width="17" height="17" fill="none" viewBox="0 0 17 17">
  <path stroke="#000" d="M6.757 12.904c0 .222-.118.46-.386.66-.267.201-.66.34-1.114.34-.454 0-.847-.139-1.114-.34-.267-.2-.386-.438-.386-.66 0-.221.119-.46.386-.66.267-.201.66-.34 1.114-.34.455 0 .847.139 1.114.34.268.2.386.439.386.66Zm7-1c0 .222-.118.46-.386.66-.267.201-.66.34-1.114.34-.454 0-.847-.139-1.114-.34-.267-.2-.386-.438-.386-.66 0-.221.119-.46.386-.66.267-.201.66-.34 1.114-.34.455 0 .847.139 1.114.34.268.2.386.439.386.66Z"/>
  <path fill="#000" d="M6.257 4.404a1 1 0 0 1 1-1v9.538l-1-.538v-8Zm7-1.807a.84.84 0 0 1 1 .826v8.481l-1-.5V2.597Z"/>
  <path fill="#000" d="M6.257 4.404c0-.571.426-1.053.993-1.124l6.015-.752a.883.883 0 0 1 .992.876l-8 1Zm0 2 8-1v1l-8 1v-1Z"/>
</svg>
