<svg xmlns="http://www.w3.org/2000/svg" width="100" height="40" fill="none" viewBox="0 0 100 40">
  <path fill="#A3B051" d="M85.015 12.006c1.2-.04 2.2.13 3 .51.8.38 1.43.94 1.89 1.68.14.22.25.46.33.72.08.24.16.49.24.75.04.16.06.31.06.45.02.14.05.28.09.42 0 .12.01.2.03.24.04.28.06.57.06.87v8.4c0 .38-.01.75-.03 1.11 0 .34-.14.56-.42.66-.12.04-.26.06-.42.06h-2.1c-.24 0-.46-.01-.66-.03a.676.676 0 0 1-.42-.27.999.999 0 0 1-.15-.45v-7.2c0-.74-.03-1.42-.09-2.04-.06-.64-.24-1.18-.54-1.62-.28-.4-.69-.68-1.23-.84a.88.88 0 0 0-.33-.06c-.1 0-.21-.02-.33-.06-.1-.02-.23-.02-.39 0-.14 0-.25.01-.33.03-.08.02-.15.03-.21.03s-.12.01-.18.03c-.46.12-.83.28-1.11.48-.64.46-1.02 1.13-1.14 2.01-.12.88-.18 1.87-.18 2.97v6.12c0 .18-.03.33-.09.45-.1.22-.26.35-.48.39-.22.04-.49.06-.81.06h-1.5c-.22 0-.44-.01-.66-.03-.22-.02-.38-.09-.48-.21-.14-.18-.21-.44-.21-.78.02-.34.03-.66.03-.96v-12.81c.02-.18.08-.33.18-.45.04-.06.1-.1.18-.12.1-.04.2-.07.3-.09h.15c.1-.02.2-.03.3-.03h1.59c.16 0 .31.01.45.03.16 0 .3.02.42.06.14.06.23.15.27.27.06.12.11.26.15.42.02.08.02.15 0 .21 0 .06.02.12.06.18.04.1.07.16.09.18.04.02.09.05.15.09.22.02.4-.05.54-.21.14-.18.29-.32.45-.42.54-.4 1.14-.72 1.8-.96.18-.06.36-.1.54-.12.2-.02.41-.05.63-.09.06-.02.15-.02.27 0 .12 0 .2-.01.24-.03Z"/>
  <path fill="#000" d="M64.695 12.004c1.62-.04 2.97.2 4.05.72 1.1.52 1.97 1.26 2.61 2.22.32.48.56 1.03.72 1.65.04.1.07.23.09.39.04.16.04.3 0 .42-.08.22-.22.35-.42.39-.2.02-.44.03-.72.03h-2.13c-.18 0-.33-.04-.45-.12a.646.646 0 0 1-.33-.36 3.19 3.19 0 0 0-.24-.54 4.43 4.43 0 0 0-.39-.6c-.14-.18-.3-.34-.48-.48-.28-.18-.59-.32-.93-.42-.12-.04-.24-.06-.36-.06a.88.88 0 0 1-.33-.06h-.3c-.4 0-.72.04-.96.12-.58.18-1.05.46-1.41.84-.36.36-.65.8-.87 1.32-.1.22-.18.46-.24.72-.04.24-.09.5-.15.78-.02.08-.03.16-.03.24 0 .08-.01.16-.03.24-.04.2-.06.48-.06.84.02.36.05.64.09.84 0 .16.01.27.03.33.04.14.06.28.06.42.02.14.05.28.09.42.16.46.35.88.57 1.26.22.38.5.7.84.96.08.06.2.13.36.21.22.14.44.23.66.27.24.04.53.08.87.12h.18c.08 0 .14-.01.18-.03h.27c.14-.04.27-.07.39-.09.14-.04.27-.08.39-.12.6-.26 1.06-.64 1.38-1.14.08-.1.15-.21.21-.33.06-.14.11-.26.15-.36l.21-.57c.06-.18.2-.32.42-.42.18-.08.47-.11.87-.09h1.41c.16-.02.29-.01.39.03h.24l.24.06c.08 0 .14.02.18.06.1.08.16.2.18.36.04.14.04.29 0 .45-.18.66-.4 1.25-.66 1.77-.82 1.54-2.13 2.61-3.93 3.21-.2.06-.41.1-.63.12-.22.04-.44.09-.66.15-.12.02-.24.03-.36.03s-.24.01-.36.03h-.33c-.1.04-.25.05-.45.03-.2 0-.35-.01-.45-.03a1.86 1.86 0 0 0-.45-.06c-.12.02-.25.01-.39-.03l-.3-.06c-.1 0-.2-.01-.3-.03-.22-.06-.43-.12-.63-.18s-.39-.13-.57-.21c-.94-.4-1.73-.91-2.37-1.53-.64-.64-1.16-1.43-1.56-2.37-.1-.18-.18-.37-.24-.57l-.18-.66a.881.881 0 0 1-.03-.21c0-.08-.02-.17-.06-.27-.04-.14-.06-.28-.06-.42 0-.16-.02-.31-.06-.45v-.51a.88.88 0 0 1-.06-.33c0-.14.02-.26.06-.36.02-.1.02-.19 0-.27a.488.488 0 0 1 0-.24c.04-.14.05-.27.03-.39 0-.12.02-.24.06-.36.1-.36.18-.7.24-1.02.06-.34.15-.67.27-.99.44-1.02.99-1.87 1.65-2.55.68-.68 1.54-1.23 2.58-1.65.28-.12.57-.2.87-.24.3-.06.61-.13.93-.21.16-.02.31-.03.45-.03s.29-.01.45-.03Z"/>
  <path fill="#A3B051" d="M38.15 12.015c.74-.02 1.39.06 1.95.24s1.05.43 1.47.75c.16.12.3.26.42.42.14.16.29.32.45.48l.18.18c.1.06.2.07.3.03.22-.06.43-.2.63-.42.2-.24.39-.42.57-.54.28-.22.58-.4.9-.54.32-.16.68-.31 1.08-.45.16-.04.35-.07.57-.09.24-.04.48-.06.72-.06a4.757 4.757 0 0 1 1.35.09c.1.02.19.03.27.03.08 0 .17.02.27.06.28.08.55.16.81.24.26.08.5.19.72.33.84.52 1.47 1.28 1.89 2.28.08.18.14.37.18.57l.12.54c.02.14.03.27.03.39l.06.36v.3c.02.12.02.26 0 .42v8.61c.02.2.02.4 0 .6 0 .18-.02.36-.06.54-.04.16-.1.27-.18.33-.12.1-.28.16-.48.18h-2.19c-.28 0-.53-.02-.75-.06-.22-.04-.37-.15-.45-.33a1.13 1.13 0 0 1-.09-.45v-7.83c.02-.12.01-.23-.03-.33v-.6c0-.12-.01-.24-.03-.36a.986.986 0 0 1-.03-.24c0-.1-.01-.19-.03-.27-.08-.3-.17-.56-.27-.78-.08-.24-.21-.45-.39-.63-.28-.28-.62-.48-1.02-.6a.373.373 0 0 0-.21 0c-.06 0-.13-.02-.21-.06-.08-.02-.18-.03-.3-.03-.1-.02-.2-.02-.3 0-.12.04-.24.06-.36.06s-.24.02-.36.06c-.58.2-1 .5-1.26.9-.34.46-.55 1.04-.63 1.74-.06.68-.09 1.43-.09 2.25v6.78c0 .2-.05.36-.15.48-.1.14-.25.23-.45.27-.18.02-.39.03-.63.03h-2.16c-.16-.02-.3-.05-.42-.09-.2-.1-.32-.26-.36-.48-.02-.22-.03-.47-.03-.75v-7.26c0-.58-.02-1.13-.06-1.65-.04-.52-.17-.95-.39-1.29a1.59 1.59 0 0 0-.63-.63c-.24-.14-.54-.26-.9-.36a.487.487 0 0 0-.24 0c-.08 0-.17-.01-.27-.03-.22-.04-.43-.02-.63.06-.04 0-.08.01-.12.03h-.12c-.32.1-.63.27-.93.51-.32.24-.57.52-.75.84-.16.3-.28.65-.36 1.05-.06.38-.1.8-.12 1.26v7.92c0 .18-.03.34-.09.48-.08.18-.23.29-.45.33-.22.04-.47.06-.75.06H30.2a.999.999 0 0 1-.45-.15c-.18-.1-.28-.28-.3-.54v-14.07c.02-.18.07-.33.15-.45.1-.12.26-.2.48-.24h.18c.1-.02.2-.03.3-.03h1.56c.16 0 .31.01.45.03.16 0 .3.02.42.06.16.06.26.16.3.3.06.14.11.3.15.48.02.06.02.12 0 .18 0 .04.02.08.06.12.02.06.04.11.06.15.04.02.08.05.12.09.24.02.44-.05.6-.21.16-.18.31-.32.45-.42.28-.2.56-.38.84-.54.3-.16.62-.29.96-.39.18-.06.36-.1.54-.12.18-.02.37-.05.57-.09.06-.02.15-.02.27 0 .12 0 .2-.01.24-.03Z"/>
  <path fill="#000" d="M25.42 20.012c.04.16.04.34 0 .54s-.11.33-.21.39c-.1.08-.25.14-.45.18-.18.02-.39.04-.63.06h-.69c-.22-.02-.42-.03-.6-.03H15.1a.88.88 0 0 0-.33.06c-.16.08-.26.16-.3.24-.04.04-.08.12-.12.24-.04.1-.05.2-.03.3.04.12.06.24.06.36a4.79 4.79 0 0 0 .66 1.53c.24.3.56.57.96.81.16.1.32.17.48.21.18.02.36.06.54.12.16.04.38.07.66.09.28.02.52.01.72-.03h.27c.2-.04.38-.08.54-.12.18-.06.35-.12.51-.18.2-.1.42-.23.66-.39.26-.16.45-.32.57-.48.1-.14.2-.27.3-.39.12-.14.26-.24.42-.3.2-.1.45-.14.75-.12h1.23c.14-.02.26-.01.36.03h.3c.2.04.34.09.42.15.08.04.12.13.12.27.02.14.01.26-.03.36a5.268 5.268 0 0 1-.75 1.41c-.44.66-.94 1.19-1.5 1.59-.56.4-1.26.74-2.1 1.02-.22.08-.44.13-.66.15-.22.02-.45.06-.69.12-.08.02-.17.02-.27 0-.08 0-.16.01-.24.03h-.33c-.1.04-.22.05-.36.03-.12 0-.23-.01-.33-.03-.16-.02-.3-.02-.42 0s-.25.01-.39-.03a.88.88 0 0 0-.33-.06.88.88 0 0 1-.33-.06c-.22-.04-.44-.09-.66-.15a1.94 1.94 0 0 1-.6-.21c-.22-.08-.43-.15-.63-.21a4.11 4.11 0 0 1-.51-.27 8.91 8.91 0 0 1-1.71-1.38c-.5-.54-.91-1.16-1.23-1.86-.1-.22-.18-.44-.24-.66-.06-.24-.14-.48-.24-.72a.881.881 0 0 1-.03-.21c0-.08-.01-.16-.03-.24-.08-.24-.13-.5-.15-.78l-.06-.84c0-.1-.01-.21-.03-.33 0-.12.01-.23.03-.33v-.36l.09-.72c.08-.34.15-.67.21-.99.06-.32.15-.62.27-.9.86-2.08 2.32-3.55 4.38-4.41.28-.12.56-.2.84-.24.3-.06.61-.13.93-.21.16-.02.31-.03.45-.03s.29-.01.45-.03c1.02-.02 1.89.1 2.61.36.74.24 1.4.56 1.98.96.18.12.36.26.54.42.18.14.34.29.48.45.06.1.14.18.24.24.16.22.31.45.45.69.14.22.29.45.45.69.1.18.18.37.24.57.08.18.16.38.24.6.1.26.18.53.24.81s.13.56.21.84c.04.16.05.34.03.54 0 .18.02.35.06.51v.33Zm-4.5-1.77c.14-.2.15-.44.03-.72-.1-.3-.18-.52-.24-.66-.28-.54-.65-.95-1.11-1.23-.46-.3-1.1-.46-1.92-.48-.06.04-.13.05-.21.03a.373.373 0 0 0-.21 0c-.1.04-.21.07-.33.09a.88.88 0 0 0-.33.06 3.2 3.2 0 0 0-1.95 1.65c-.04.08-.09.19-.15.33-.04.12-.07.25-.09.39-.02.12-.02.24 0 .36.04.12.11.22.21.3.16.1.38.15.66.15h5.01c.32-.02.53-.11.63-.27Z"/>
</svg>
